<?xml version="1.0" encoding="UTF-8" standalone="no"?><!DOCTYPE svg PUBLIC "-//W3C//DTD SVG 1.1//EN" "http://www.w3.org/Graphics/SVG/1.1/DTD/svg11.dtd"><svg width="100%" height="100%" viewBox="0 0 800 600" version="1.1" xmlns="http://www.w3.org/2000/svg" xmlns:xlink="http://www.w3.org/1999/xlink" xml:space="preserve" xmlns:serif="http://www.serif.com/" style="fill-rule:evenodd;clip-rule:evenodd;stroke-linejoin:round;stroke-miterlimit:1.41421;"><g id="_119134576"><circle id="_116354000" cx="278.664" cy="292.366" r="115.989" style="fill:#f7931a;"/><path id="_119134936" d="M313.775,293.858c8.359,-1.901 14.669,-7.372 16.378,-18.708c2.357,-15.486 -9.429,-23.852 -25.557,-29.457l5.288,-20.971l-12.779,-3.224l-5.156,20.417c-3.362,-0.848 -6.806,-1.647 -10.235,-2.439l5.183,-20.551l-12.767,-3.223l-5.293,20.964c-2.781,-0.641 -5.512,-1.273 -8.165,-1.943l0.016,-0.062l-17.624,-4.455l-3.437,13.632c0,0 9.481,2.203 9.282,2.336c5.174,1.31 6.106,4.738 5.938,7.452l-6.024,23.89l-8.468,33.557c-0.638,1.568 -2.252,3.925 -5.871,3.017c0.128,0.186 -9.295,-2.348 -9.295,-2.348l-6.381,14.603l16.627,4.196c3.097,0.785 6.129,1.601 9.109,2.379l-5.34,21.21l12.763,3.224l5.292,-20.986c3.494,0.958 6.875,1.844 10.187,2.675l-5.274,20.886l12.778,3.225l5.35,-21.171c21.79,4.188 38.192,2.576 45.147,-17.107c5.601,-15.845 -0.215,-25.017 -11.672,-31.018l0,0Zm-35.542,-39.3c7.207,1.818 30.452,5.244 26.659,20.287c-3.642,14.42 -25.875,7.018 -33.089,5.198l6.43,-25.485l0,0Zm-16.773,66.449l7.096,-28.098c8.66,2.182 36.447,6.548 32.279,23.082c-3.998,15.856 -30.708,7.196 -39.375,5.016l0,0Z" style="fill:#fff;"/><text x="337.28px" y="371.284px" style="font-family:'Chalkduster', cursive;font-size:195.934px;fill:#ec1111;">X</text><text x="409.119px" y="353.957px" style="font-family:'Chalkduster', cursive;font-size:225.538px;fill:#ec1111;">c</text></g></svg>